P3
4 32
255
0 0 225 225 0 0 0 225 0 225 225 225
0 0 225 225 0 0 0 225 0 225 225 225
0 0 225 225 0 0 0 225 0 225 225 225
0 0 225 225 0 0 0 225 0 225 225 225
0 0 225 225 0 0 0 225 0 225 225 225
0 0 225 225 0 0 0 225 0 225 225 225
0 0 225 225 0 0 0 225 0 225 225 225
0 0 225 225 0 0 0 225 0 225 225 225
0 225 0 0 0 225 0 0 0 225 0 0
0 225 0 0 0 225 0 0 0 225 0 0
0 225 0 0 0 225 0 0 0 225 0 0
0 225 0 0 0 225 0 0 0 225 0 0
0 225 0 0 0 225 0 0 0 225 0 0
0 225 0 0 0 225 0 0 0 225 0 0
0 225 0 0 0 225 0 0 0 225 0 0
0 225 0 0 0 225 0 0 0 225 0 0
0 0 225 225 0 0 0 225 0 0 0 0
0 0 225 225 0 0 0 225 0 0 0 0
0 0 225 225 0 0 0 225 0 0 0 0
0 0 225 225 0 0 0 225 0 0 0 0
0 0 225 225 0 0 0 225 0 0 0 0
0 0 225 225 0 0 0 225 0 0 0 0
0 0 225 225 0 0 0 225 0 0 0 0
0 0 225 225 0 0 0 225 0 0 0 0
0 225 0 0 0 225 0 0 0 225 0 0
0 225 0 0 0 225 0 0 0 225 0 0
0 225 0 0 0 225 0 0 0 225 0 0
0 225 0 0 0 225 0 0 0 225 0 0
0 225 0 0 0 225 0 0 0 225 0 0
0 225 0 0 0 225 0 0 0 225 0 0
0 225 0 0 0 225 0 0 0 225 0 0
0 225 0 0 0 225 0 0 0 225 0 0
